<?xml version="1.0" encoding="UTF-8" standalone="no"?>
<svg
   xmlns:dc="http://purl.org/dc/elements/1.1/"
   xmlns:cc="http://creativecommons.org/ns#"
   xmlns:rdf="http://www.w3.org/1999/02/22-rdf-syntax-ns#"
   xmlns:svg="http://www.w3.org/2000/svg"
   xmlns="http://www.w3.org/2000/svg"
   xmlns:sodipodi="http://sodipodi.sourceforge.net/DTD/sodipodi-0.dtd"
   xmlns:inkscape="http://www.inkscape.org/namespaces/inkscape"
   height="500"
   id="svg2"
   version="1.1"
   width="500"
   inkscape:version="0.92.0 r15299"
   sodipodi:docname="launcher_round.svg"
   inkscape:export-filename="C:\Users\Hugo\Dropbox\dev\projects\chalenges\concrete\icons\launcher_round_debug.png"
   inkscape:export-xdpi="98.304001"
   inkscape:export-ydpi="98.304001"
   viewBox="0 0 468.75002 468.75002">
  <metadata
     id="metadata3350">
    <rdf:RDF>
      <cc:Work
         rdf:about="">
        <dc:format>image/svg+xml</dc:format>
        <dc:type
           rdf:resource="http://purl.org/dc/dcmitype/StillImage" />
        <dc:title />
      </cc:Work>
    </rdf:RDF>
  </metadata>
  <sodipodi:namedview
     pagecolor="#ffffff"
     bordercolor="#666666"
     borderopacity="1"
     objecttolerance="10"
     gridtolerance="10"
     guidetolerance="10"
     inkscape:pageopacity="0"
     inkscape:pageshadow="2"
     inkscape:window-width="1366"
     inkscape:window-height="705"
     id="namedview3348"
     showgrid="false"
     inkscape:zoom="0.71"
     inkscape:cx="79.577465"
     inkscape:cy="221.12676"
     inkscape:window-x="256"
     inkscape:window-y="1072"
     inkscape:window-maximized="1"
     inkscape:current-layer="layer5"
     showborder="true"
     inkscape:showpageshadow="false"
     inkscape:lockguides="false"
     fit-margin-top="0"
     fit-margin-left="0"
     fit-margin-right="0"
     fit-margin-bottom="0" />
  <defs
     id="defs4" />
  <g
     transform="translate(-549.00515,-503.31779)"
     id="layer1-9" />
  <g
     transform="matrix(1.2144212,0,0,1.2144212,-1056.0375,-206.52107)"
     id="layer1-4">
    <g
       transform="translate(55.728928,-28.316651)"
       id="layer1-7" />
    <g
       transform="matrix(0.17871094,0,0,0.17871094,245.33672,459.25678)"
       style="fill:#ffffff"
       id="g3006" />
  </g>
  <g
     inkscape:groupmode="layer"
     id="layer1"
     inkscape:label="background"
     style="display:inline"
     transform="translate(0,-31.249985)"
     sodipodi:insensitive="true">
    <circle
       style="display:inline;fill:#4b4b4b;stroke-width:0.18735583;stroke-miterlimit:4;stroke-dasharray:none"
       id="path4188"
       cx="234.37502"
       cy="265.625"
       r="234.37502" />
  </g>
  <g
     inkscape:groupmode="layer"
     id="layer2"
     inkscape:label="shadow"
     style="display:inline"
     transform="translate(0,-31.249985)"
     sodipodi:insensitive="true">
    <path
       d="m 390.29019,118.84341 -0.0292,0.0293 c 6.36635,6.24907 8.0504,17.23281 8.0504,29.71347 v 35.68543 c 14.54501,19.48479 23.41948,43.48101 23.41948,69.64367 v 46.83896 c 0,64.67484 -52.42254,117.09739 -117.0974,117.09739 h -140.5169 c -31.32688,0 -59.78466,-12.2853 -80.7972,-32.31888 l 116.39481,111.94511 c 78.25299,9.70708 144.95195,-12.90212 198.78096,-64.9017 56.64637,-52.85679 85.51062,-139.62372 60.94106,-229.80316 z"
       id="rect2989-1"
       style="display:inline;opacity:0.3;fill:#000000;fill-opacity:1;stroke:none;stroke-width:0.93677914"
       inkscape:connector-curvature="0"
       sodipodi:nodetypes="ccscssssccccc" />
    <path
       d="m 164.11657,253.91525 c -38.78662,0 -70.22916,31.47183 -70.22916,70.25844 0,38.7866 31.44254,70.25844 70.22916,70.25844 h 140.51687 c 38.78662,0 70.22917,-31.47184 70.22917,-70.25844 0,-38.78661 -31.44255,-70.25844 -70.22917,-70.25844 z m 0,23.39021 c 19.39332,0 23.44875,15.82374 23.44875,35.21704 v 12.41232 c 0,19.3933 -4.05543,35.18777 -23.44875,35.18777 -19.39331,0 -23.41948,-15.79447 -23.41948,-35.18777 V 312.5225 c 0,-19.3933 4.02617,-35.21704 23.41948,-35.21704 z m 140.51687,0 c 19.39332,0 23.41948,15.82374 23.41948,35.21704 v 12.41232 c 0,19.3933 -4.02616,35.18777 -23.41948,35.18777 -19.39331,0 -23.44875,-15.79447 -23.44875,-35.18777 V 312.5225 c 0,-19.3933 4.05544,-35.21704 23.44875,-35.21704 z"
       id="rect2989-17"
       style="display:inline;opacity:0.3;fill:#000000;fill-opacity:1;stroke:none;stroke-width:0.93677914"
       inkscape:connector-curvature="0" />
  </g>
  <g
     inkscape:groupmode="layer"
     id="layer3"
     inkscape:label="octocat"
     style="display:inline"
     transform="translate(0,-31.249985)"
     sodipodi:insensitive="true">
    <path
       inkscape:connector-curvature="0"
       style="display:inline;fill:#ffffff;fill-opacity:1;stroke:none;stroke-width:0.93677914"
       id="rect2989-9"
       d="m 93.88741,113.39838 c -19.393312,0 -23.448754,15.79445 -23.448754,35.18777 v 35.68543 c -14.544977,19.48479 -23.419478,43.48101 -23.419478,69.64367 v 46.83896 c 0,64.67484 52.422545,117.09739 117.097392,117.09739 h 140.51687 c 64.67486,0 117.0974,-52.42255 117.0974,-117.09739 v -46.83896 c 0,-26.16266 -8.87447,-50.15888 -23.41948,-69.64367 v -35.68543 c 0,-19.39332 -4.05544,-35.18777 -23.44875,-35.18777 -16.37458,0 -37.50443,11.42507 -43.99935,26.61038 -8.46135,-1.96643 -17.17348,-3.1909 -26.22982,-3.1909 H 164.11657 c -9.05633,0 -17.76777,1.22374 -26.22981,3.1909 -6.49493,-15.18531 -27.62482,-26.61038 -43.99935,-26.61038 z m 70.22916,140.51687 h 140.51687 c 38.78662,0 70.22917,31.47183 70.22917,70.25844 0,38.7866 -31.44255,70.25844 -70.22917,70.25844 H 164.11657 c -38.78662,0 -70.22916,-31.47184 -70.22916,-70.25844 0,-38.78661 31.44254,-70.25844 70.22916,-70.25844 z m 0,23.39021 c -19.39331,0 -23.41948,15.82374 -23.41948,35.21704 v 12.41232 c 0,19.3933 4.02617,35.18777 23.41948,35.18777 19.39332,0 23.44875,-15.79447 23.44875,-35.18777 V 312.5225 c 0,-19.3933 -4.05543,-35.21704 -23.44875,-35.21704 z m 140.51687,0 c -19.39331,0 -23.44875,15.82374 -23.44875,35.21704 v 12.41232 c 0,19.3933 4.05544,35.18777 23.44875,35.18777 19.39332,0 23.41948,-15.79447 23.41948,-35.18777 V 312.5225 c 0,-19.3933 -4.02616,-35.21704 -23.41948,-35.21704 z" />
  </g>
  <g
     inkscape:groupmode="layer"
     id="layer5"
     inkscape:label="bug"
     style="display:inline"
     sodipodi:insensitive="true">
    <path
       inkscape:connector-curvature="0"
       d="m 454.81877,159.98732 -31.44044,-22.17751 c 1.12108,-12.27878 -0.48861,-24.72444 -4.83862,-36.25457 l 31.00681,-5.356674 -4.66442,-26.999798 -41.50143,7.169721 c -4.16679,-4.782315 -8.96845,-9.258452 -14.39499,-13.086235 -5.42657,-3.827793 -11.25425,-6.84938 -17.15734,-9.170179 l -7.1697,-41.501431 -26.9998,4.664459 5.3567,31.006801 c -12.32127,-0.229479 -24.58566,2.429693 -35.77662,7.60536 L 275.79848,33.709776 260.0138,56.087319 283.39831,72.582333 c -3.18038,3.202266 -6.21593,6.674273 -8.89933,10.47845 l -7.89236,11.188766 -22.37751,-15.784688 -15.7847,22.377539 22.37753,15.78468 -7.89234,11.18875 c -2.6834,3.80419 -4.93574,7.82866 -6.88536,11.89908 l -23.38453,-16.49497 -15.7847,22.37751 31.44046,22.17751 c -2.54693,28.19647 9.5536,57.00656 34.39266,74.52758 24.83906,17.52101 56.03908,19.25428 81.74674,7.39498 l 31.44042,22.17749 15.78472,-22.37754 -23.38453,-16.495 c 3.1804,-3.20226 6.21594,-6.67429 8.89932,-10.47845 l 7.89235,-11.18877 22.37754,15.78468 15.7847,-22.37753 -22.37754,-15.78472 7.89235,-11.18875 c 2.6834,-3.80418 4.93572,-7.82866 6.88535,-11.89908 l 23.38454,16.49501 z m -130.27138,42.15609 -44.75505,-31.56941 15.78467,-22.37754 44.75509,31.5694 z m 31.56938,-44.75511 -44.75507,-31.56937 15.78469,-22.37754 44.75509,31.56939 z"
       id="path3747"
       style="display:inline;fill:#ff6600;stroke-width:6.84612465" />
  </g>
</svg>
