<?xml version="1.0" encoding="UTF-8" standalone="no"?>
<!-- Created with Inkscape (http://www.inkscape.org/) -->

<svg
   xmlns:dc="http://purl.org/dc/elements/1.1/"
   xmlns:cc="http://creativecommons.org/ns#"
   xmlns:rdf="http://www.w3.org/1999/02/22-rdf-syntax-ns#"
   xmlns:svg="http://www.w3.org/2000/svg"
   xmlns="http://www.w3.org/2000/svg"
   xmlns:sodipodi="http://sodipodi.sourceforge.net/DTD/sodipodi-0.dtd"
   xmlns:inkscape="http://www.inkscape.org/namespaces/inkscape"
   width="512"
   height="512"
   viewBox="0 0 135.46666 135.46666"
   version="1.1"
   id="svg8"
   style="shape-rendering:crispEdges"
   inkscape:version="0.92.2 (5c3e80d, 2017-08-06)"
   sodipodi:docname="launcher.svg"
   inkscape:export-filename="C:\Users\hugonardo\Dropbox\dev\projects\chalenges\github-java-pop\icons\ic_launcher.png"
   inkscape:export-xdpi="96"
   inkscape:export-ydpi="96">
  <defs
     id="defs2" />
  <sodipodi:namedview
     id="base"
     pagecolor="#ffffff"
     bordercolor="#666666"
     borderopacity="1.0"
     inkscape:pageopacity="0.0"
     inkscape:pageshadow="2"
     inkscape:zoom="0.98994949"
     inkscape:cx="203.3466"
     inkscape:cy="396.72336"
     inkscape:document-units="mm"
     inkscape:current-layer="layer5"
     showgrid="false"
     units="px"
     inkscape:showpageshadow="false"
     inkscape:window-width="1920"
     inkscape:window-height="1017"
     inkscape:window-x="-8"
     inkscape:window-y="-8"
     inkscape:window-maximized="1" />
  <metadata
     id="metadata5">
    <rdf:RDF>
      <cc:Work
         rdf:about="">
        <dc:format>image/svg+xml</dc:format>
        <dc:type
           rdf:resource="http://purl.org/dc/dcmitype/StillImage" />
        <dc:title></dc:title>
      </cc:Work>
    </rdf:RDF>
  </metadata>
  <g
     inkscape:groupmode="layer"
     id="layer5"
     inkscape:label="background"
     style="display:inline">
    <rect
       ry="9.1094885"
       y="-1.535751e-006"
       x="-4.1600001e-006"
       height="135.46666"
       width="135.46666"
       id="rect4160"
       style="display:inline;opacity:1;fill:#4b4b4b;fill-opacity:1;stroke:none;stroke-width:0.05418667;stroke-miterlimit:4;stroke-dasharray:none;shape-rendering:crispEdges" />
  </g>
  <g
     inkscape:groupmode="layer"
     id="layer4"
     inkscape:label="shadow"
     style="display:inline">
    <path
       sodipodi:nodetypes="ccccscssssccccc"
       inkscape:connector-curvature="0"
       style="display:inline;opacity:0.3;fill:#000000;fill-opacity:1;stroke:none;stroke-width:0.27093333;shape-rendering:crispEdges"
       id="rect2989-1"
       d="m 135.46473,126.54753 0.002,-78.617741 -22.63987,-22.648333 -0.008,0.0085 c 1.84126,1.807342 2.32832,4.984035 2.32832,8.593666 v 10.320867 c 4.20668,5.635351 6.77333,12.575487 6.77333,20.1422 v 13.546666 c 0,18.705123 -15.16153,33.866665 -33.866662,33.866665 H 47.413329 c -9.060295,0 -17.290798,-3.55313 -23.368,-9.3472 l 33.053866,33.05386 69.578985,-0.005 c 3.6471,-0.0953 8.53185,-2.91612 8.78655,-8.91364 z" />
  </g>
  <g
     inkscape:groupmode="layer"
     id="layer3"
     inkscape:label="octocat"
     style="display:inline">
    <g
       transform="matrix(0.27093333,0,0,0.27093333,-4.1600001e-6,-1.024e-5)"
       style="display:inline;shape-rendering:crispEdges"
       inkscape:label="octocat"
       id="layer9">
      <path
         inkscape:connector-curvature="0"
         style="fill:#ffffff;fill-opacity:1;stroke:none"
         id="rect2989-9"
         d="M 100.03125,87.5 C 79.329133,87.5 75,104.36038 75,125.0625 v 38.09375 C 59.473419,183.95602 50,209.57168 50,237.5 v 50 c 0,69.03958 55.96041,125 125,125 h 150 c 69.0396,0 125,-55.96042 125,-125 v -50 c 0,-27.92832 -9.47338,-53.54398 -25,-74.34375 V 125.0625 C 425,104.36038 420.67087,87.5 399.96875,87.5 382.4891,87.5 359.93325,99.696119 353,115.90625 343.96762,113.80711 334.66752,112.5 325,112.5 H 175 c -9.66752,0 -18.96687,1.30633 -28,3.40625 C 140.06675,99.696119 117.51086,87.5 100.03125,87.5 Z M 175,237.5 h 150 c 41.40423,0 74.96875,33.59578 74.96875,75 0,41.40421 -33.56452,75 -74.96875,75 H 175 c -41.40423,0 -74.96875,-33.59579 -74.96875,-75 0,-41.40422 33.56452,-75 74.96875,-75 z m 0,24.96875 c -20.70212,0 -25,16.89165 -25,37.59375 v 13.25 c 0,20.7021 4.29788,37.5625 25,37.5625 20.70212,0 25.03125,-16.8604 25.03125,-37.5625 v -13.25 c 0,-20.7021 -4.32913,-37.59375 -25.03125,-37.59375 z m 150,0 c -20.70212,0 -25.03125,16.89165 -25.03125,37.59375 v 13.25 c 0,20.7021 4.32913,37.5625 25.03125,37.5625 20.70212,0 25,-16.8604 25,-37.5625 v -13.25 c 0,-20.7021 -4.29788,-37.59375 -25,-37.59375 z" />
    </g>
    <path
       inkscape:connector-curvature="0"
       style="display:inline;opacity:0.3;fill:#000000;fill-opacity:1;stroke:none;stroke-width:0.27093333;shape-rendering:crispEdges"
       id="rect2989-17"
       d="m 47.413329,64.346656 c -11.217786,0 -20.311533,9.102216 -20.311533,20.319999 0,11.217781 9.093747,20.320005 20.311533,20.320005 h 40.639999 c 11.217786,0 20.311532,-9.102224 20.311532,-20.320005 0,-11.217783 -9.093746,-20.319999 -20.311532,-20.319999 z m 0,6.764866 c 5.608894,0 6.7818,4.576511 6.7818,10.1854 v 3.589867 c 0,5.608889 -1.172906,10.176933 -6.7818,10.176933 -5.608895,0 -6.773334,-4.568044 -6.773334,-10.176933 v -3.589867 c 0,-5.608889 1.164439,-10.1854 6.773334,-10.1854 z m 40.639999,0 c 5.608894,0 6.773333,4.576511 6.773333,10.1854 v 3.589867 c 0,5.608889 -1.164439,10.176933 -6.773333,10.176933 -5.608894,0 -6.7818,-4.568044 -6.7818,-10.176933 v -3.589867 c 0,-5.608889 1.172906,-10.1854 6.7818,-10.1854 z" />
  </g>
  <g
     inkscape:groupmode="layer"
     id="layer2"
     inkscape:label="bug"
     style="display:inline">
    <g
       transform="matrix(0.27093333,0,0,0.27093333,-4.16e-6,-1.024e-5)"
       style="display:inline;shape-rendering:crispEdges"
       inkscape:label="bug"
       id="layer10">
      <path
         style="fill:#ff6600;stroke-width:7.30252934"
         id="path3747"
         d="m 485.14,170.65316 -33.53651,-23.65594 c 1.19592,-13.0973 -0.52114,-26.37284 -5.16104,-38.67162 l 33.07383,-5.71377 -4.97534,-28.799806 -44.26814,7.647712 c -4.44466,-5.101151 -9.56656,-9.875699 -15.35471,-13.958671 -5.78841,-4.082949 -12.00468,-7.305998 -18.30118,-9.781516 l -7.64767,-44.268191 -28.79974,4.975418 5.71376,33.073923 c -13.14268,-0.244783 -26.2248,2.59166 -38.16174,8.112395 L 294.18501,35.957108 277.34809,59.82647 302.29145,77.421171 c -3.39251,3.415737 -6.6303,7.119207 -9.49258,11.176993 l -8.41852,11.934696 -23.86932,-16.83702 -16.83695,23.8694 23.86927,16.83698 -8.41854,11.93463 c -2.86225,4.0579 -5.26477,8.35066 -7.34415,12.69237 L 226.83717,131.43469 210,155.30389 l 33.53653,23.65599 c -2.71686,30.0763 10.19049,60.80707 36.6854,79.49627 26.49506,18.68903 59.77518,20.53785 87.19656,7.88783 L 400.95499,290 417.79193,266.13054 392.84856,248.53601 c 3.39252,-3.41568 6.63031,-7.11938 9.49258,-11.17694 l 8.41851,-11.93477 23.86934,16.83703 16.83696,-23.86945 -23.86929,-16.83709 8.41854,-11.93463 c 2.86226,-4.05779 5.26476,-8.35056 7.34414,-12.69233 l 24.9435,17.59477 z m -138.95611,44.9665 -47.73867,-33.67412 16.83673,-23.86939 47.73903,33.67405 z m 33.67416,-47.7387 -47.73901,-33.67411 16.83707,-23.86936 47.7387,33.67392 z"
         inkscape:connector-curvature="0" />
    </g>
  </g>
</svg>
